<mxfile host="65bd71144e">
    <diagram id="-yGx5g4bCKJSMaHnygLF" name="Page-1">
        <mxGraphModel dx="440" dy="366" grid="1" gridSize="10" guides="1" tooltips="1" connect="1" arrows="1" fold="1" page="1" pageScale="1" pageWidth="827" pageHeight="1169" math="0" shadow="0">
            <root>
                <mxCell id="0"/>
                <mxCell id="1" parent="0"/>
                <mxCell id="2" value="print newarr[i];" style="rounded=1;whiteSpace=wrap;html=1;" vertex="1" parent="1">
                    <mxGeometry x="280" y="879" width="120" height="60" as="geometry"/>
                </mxCell>
                <mxCell id="3" value="function &quot;methodArray&quot;" style="rounded=1;whiteSpace=wrap;html=1;" vertex="1" parent="1">
                    <mxGeometry x="10" y="100" width="120" height="60" as="geometry"/>
                </mxCell>
                <mxCell id="4" value="function &quot;PrintArray&quot;" style="rounded=1;whiteSpace=wrap;html=1;" vertex="1" parent="1">
                    <mxGeometry x="10" y="190" width="120" height="60" as="geometry"/>
                </mxCell>
                <mxCell id="5" value="" style="endArrow=classic;html=1;exitX=0.5;exitY=1;exitDx=0;exitDy=0;" edge="1" parent="1" target="3">
                    <mxGeometry relative="1" as="geometry">
                        <mxPoint x="70" y="70" as="sourcePoint"/>
                        <mxPoint x="410" y="140" as="targetPoint"/>
                    </mxGeometry>
                </mxCell>
                <mxCell id="6" value="" style="endArrow=classic;html=1;exitX=1;exitY=0.5;exitDx=0;exitDy=0;entryX=1;entryY=0.5;entryDx=0;entryDy=0;" edge="1" parent="1" target="4">
                    <mxGeometry relative="1" as="geometry">
                        <mxPoint x="130" y="40" as="sourcePoint"/>
                        <mxPoint x="80" y="110" as="targetPoint"/>
                        <Array as="points">
                            <mxPoint x="160" y="40"/>
                            <mxPoint x="160" y="170"/>
                            <mxPoint x="160" y="220"/>
                        </Array>
                    </mxGeometry>
                </mxCell>
                <mxCell id="7" value="string array[];" style="rounded=1;whiteSpace=wrap;html=1;" vertex="1" parent="1">
                    <mxGeometry x="280" y="249" width="120" height="60" as="geometry"/>
                </mxCell>
                <mxCell id="8" value="&lt;span&gt;function &quot;methodArray&quot;&lt;/span&gt;" style="ellipse;whiteSpace=wrap;html=1;" vertex="1" parent="1">
                    <mxGeometry x="280" y="119" width="120" height="80" as="geometry"/>
                </mxCell>
                <mxCell id="9" value="&lt;span style=&quot;font-family: &amp;#34;helvetica&amp;#34;&quot;&gt;FOR &lt;br&gt;(i=0, i&amp;lt;array.lenght, i++)&lt;/span&gt;" style="rhombus;whiteSpace=wrap;html=1;" vertex="1" parent="1">
                    <mxGeometry x="260" y="349" width="160" height="130" as="geometry"/>
                </mxCell>
                <mxCell id="10" value="if (array [i].lenght&amp;lt;=3)" style="rhombus;whiteSpace=wrap;html=1;" vertex="1" parent="1">
                    <mxGeometry x="250" y="539" width="180" height="120" as="geometry"/>
                </mxCell>
                <mxCell id="11" value="string new&amp;nbsp;&lt;br&gt;&amp;nbsp;array &quot;newarr&quot;&amp;nbsp;" style="rounded=1;whiteSpace=wrap;html=1;" vertex="1" parent="1">
                    <mxGeometry x="280" y="699" width="120" height="60" as="geometry"/>
                </mxCell>
                <mxCell id="12" value="newarr[i] = array[i];" style="rounded=1;whiteSpace=wrap;html=1;" vertex="1" parent="1">
                    <mxGeometry x="280" y="789" width="120" height="60" as="geometry"/>
                </mxCell>
                <mxCell id="13" value="" style="endArrow=classic;html=1;" edge="1" parent="1" source="8" target="7">
                    <mxGeometry relative="1" as="geometry">
                        <mxPoint x="339.76" y="219" as="sourcePoint"/>
                        <mxPoint x="339.76" y="249" as="targetPoint"/>
                        <Array as="points">
                            <mxPoint x="339.76" y="229"/>
                            <mxPoint x="339.76" y="239"/>
                        </Array>
                    </mxGeometry>
                </mxCell>
                <mxCell id="14" value="" style="endArrow=classic;html=1;exitX=0.5;exitY=1;exitDx=0;exitDy=0;" edge="1" parent="1" source="7" target="9">
                    <mxGeometry relative="1" as="geometry">
                        <mxPoint x="340" y="309" as="sourcePoint"/>
                        <mxPoint x="339.82000000000005" y="339" as="targetPoint"/>
                        <Array as="points">
                            <mxPoint x="339.76" y="319"/>
                            <mxPoint x="339.76" y="329"/>
                        </Array>
                    </mxGeometry>
                </mxCell>
                <mxCell id="15" value="" style="endArrow=classic;html=1;entryX=0;entryY=0.5;entryDx=0;entryDy=0;exitX=0;exitY=0.5;exitDx=0;exitDy=0;" edge="1" parent="1" source="9" target="10">
                    <mxGeometry relative="1" as="geometry">
                        <mxPoint x="-210" y="439" as="sourcePoint"/>
                        <mxPoint x="130" y="439" as="targetPoint"/>
                        <Array as="points">
                            <mxPoint x="200" y="414"/>
                            <mxPoint x="200" y="599"/>
                        </Array>
                    </mxGeometry>
                </mxCell>
                <mxCell id="16" value="YES" style="edgeLabel;resizable=0;html=1;align=center;verticalAlign=middle;" connectable="0" vertex="1" parent="15">
                    <mxGeometry relative="1" as="geometry"/>
                </mxCell>
                <mxCell id="17" value="&lt;span&gt;END fuction&lt;/span&gt;" style="ellipse;whiteSpace=wrap;html=1;" vertex="1" parent="1">
                    <mxGeometry x="280" y="969" width="120" height="80" as="geometry"/>
                </mxCell>
                <mxCell id="18" value="" style="endArrow=classic;html=1;entryX=1;entryY=0.5;entryDx=0;entryDy=0;exitX=1;exitY=0.5;exitDx=0;exitDy=0;" edge="1" parent="1" source="9" target="17">
                    <mxGeometry relative="1" as="geometry">
                        <mxPoint x="40" y="399" as="sourcePoint"/>
                        <mxPoint x="200" y="399" as="targetPoint"/>
                        <Array as="points">
                            <mxPoint x="500" y="414"/>
                            <mxPoint x="500" y="1009"/>
                        </Array>
                    </mxGeometry>
                </mxCell>
                <mxCell id="19" value="NO" style="edgeLabel;resizable=0;html=1;align=center;verticalAlign=middle;" connectable="0" vertex="1" parent="18">
                    <mxGeometry relative="1" as="geometry"/>
                </mxCell>
                <mxCell id="20" value="" style="endArrow=classic;html=1;exitX=0.5;exitY=1;exitDx=0;exitDy=0;" edge="1" parent="1" source="11" target="12">
                    <mxGeometry width="50" height="50" relative="1" as="geometry">
                        <mxPoint x="350" y="669" as="sourcePoint"/>
                        <mxPoint x="350" y="709" as="targetPoint"/>
                    </mxGeometry>
                </mxCell>
                <mxCell id="21" value="" style="endArrow=classic;html=1;exitX=0.5;exitY=1;exitDx=0;exitDy=0;" edge="1" parent="1" source="12">
                    <mxGeometry width="50" height="50" relative="1" as="geometry">
                        <mxPoint x="360" y="679" as="sourcePoint"/>
                        <mxPoint x="340" y="879" as="targetPoint"/>
                    </mxGeometry>
                </mxCell>
                <mxCell id="22" value="" style="endArrow=classic;html=1;exitX=0.5;exitY=1;exitDx=0;exitDy=0;entryX=0.5;entryY=0;entryDx=0;entryDy=0;" edge="1" parent="1" source="2" target="17">
                    <mxGeometry width="50" height="50" relative="1" as="geometry">
                        <mxPoint x="350" y="859" as="sourcePoint"/>
                        <mxPoint x="350" y="889" as="targetPoint"/>
                    </mxGeometry>
                </mxCell>
                <mxCell id="33" value="" style="endArrow=classic;html=1;exitX=0.5;exitY=0;exitDx=0;exitDy=0;entryX=0.5;entryY=1;entryDx=0;entryDy=0;" edge="1" parent="1" source="10" target="9">
                    <mxGeometry relative="1" as="geometry">
                        <mxPoint x="250" y="670" as="sourcePoint"/>
                        <mxPoint x="350" y="670" as="targetPoint"/>
                    </mxGeometry>
                </mxCell>
                <mxCell id="34" value="NO" style="edgeLabel;resizable=0;html=1;align=center;verticalAlign=middle;" connectable="0" vertex="1" parent="33">
                    <mxGeometry relative="1" as="geometry"/>
                </mxCell>
                <mxCell id="35" value="" style="endArrow=classic;html=1;" edge="1" parent="1">
                    <mxGeometry relative="1" as="geometry">
                        <mxPoint x="340" y="660" as="sourcePoint"/>
                        <mxPoint x="340" y="700" as="targetPoint"/>
                    </mxGeometry>
                </mxCell>
                <mxCell id="36" value="YES" style="edgeLabel;resizable=0;html=1;align=center;verticalAlign=middle;" connectable="0" vertex="1" parent="35">
                    <mxGeometry relative="1" as="geometry"/>
                </mxCell>
                <mxCell id="39" value="string array" style="rounded=1;whiteSpace=wrap;html=1;" vertex="1" parent="1">
                    <mxGeometry x="10" y="10" width="120" height="60" as="geometry"/>
                </mxCell>
            </root>
        </mxGraphModel>
    </diagram>
</mxfile>